<svg width="32" height="32" viewBox="0 0 32 32" fill="none" xmlns="http://www.w3.org/2000/svg">
<g id="check_circle">
<mask id="mask0_634_3895" style="mask-type:alpha" maskUnits="userSpaceOnUse" x="0" y="0" width="32" height="32">
<rect id="Bounding box" width="32" height="32" fill="#067BD5"/>
</mask>
<g mask="url(#mask0_634_3895)">
<path id="check_circle_2" d="M14.0582 21.6367L23.0362 12.6587L21.7932 11.4297L14.0582 19.1733L10.1592 15.2743L8.9385 16.5033L14.0582 21.6367ZM16.0025 28.6673C14.2596 28.6673 12.6188 28.3349 11.0802 27.67C9.5415 27.0051 8.19827 26.0991 7.0505 24.952C5.90294 23.8047 4.9965 22.462 4.33116 20.924C3.66605 19.386 3.3335 17.7457 3.3335 16.003C3.3335 14.251 3.66594 12.6042 4.33083 11.0627C4.99572 9.5211 5.90172 8.18021 7.04883 7.03998C8.19616 5.89976 9.53883 4.99698 11.0768 4.33165C12.6148 3.66654 14.2552 3.33398 15.9978 3.33398C17.7498 3.33398 19.3966 3.66643 20.9382 4.33132C22.4797 4.99621 23.8206 5.89854 24.9608 7.03832C26.1011 8.1781 27.0038 9.51843 27.6692 11.0593C28.3343 12.6002 28.6668 14.2465 28.6668 15.9983C28.6668 17.7412 28.3344 19.382 27.6695 20.9207C27.0046 22.4593 26.1023 23.8025 24.9625 24.9503C23.8227 26.0979 22.4824 27.0043 20.9415 27.6697C19.4006 28.3348 17.7543 28.6673 16.0025 28.6673Z" fill="#067BD5"/>
</g>
</g>
</svg>
